<mxfile host="app.diagrams.net" modified="2024-04-29T22:05:19.483Z" agent="Mozilla/5.0 (Windows NT 10.0; Win64; x64) AppleWebKit/537.36 (KHTML, like Gecko) Chrome/124.0.0.0 Safari/537.36" etag="uNwjE8374fWM2ed5JxGc" version="24.0.5" type="device" pages="2">
  <diagram name="PÃ¡gina-1" id="KXbG92y5uAsCccmv_xVL">
    <mxGraphModel dx="836" dy="478" grid="1" gridSize="10" guides="1" tooltips="1" connect="1" arrows="1" fold="1" page="1" pageScale="1" pageWidth="1920" pageHeight="1200" math="0" shadow="0">
      <root>
        <mxCell id="0" />
        <mxCell id="1" parent="0" />
        <mxCell id="WbHJc0x74v06CvwMN0MW-1" value="&lt;font style=&quot;font-size: 15px;&quot;&gt;nombre&lt;/font&gt;" style="ellipse;whiteSpace=wrap;html=1;" vertex="1" parent="1">
          <mxGeometry x="80" y="50" width="90" height="60" as="geometry" />
        </mxCell>
        <mxCell id="WbHJc0x74v06CvwMN0MW-2" value="&lt;font style=&quot;font-size: 15px;&quot;&gt;poblacion&lt;/font&gt;" style="ellipse;whiteSpace=wrap;html=1;" vertex="1" parent="1">
          <mxGeometry x="200" y="60" width="90" height="60" as="geometry" />
        </mxCell>
        <mxCell id="WbHJc0x74v06CvwMN0MW-3" value="&lt;u&gt;&lt;font style=&quot;font-size: 15px;&quot;&gt;dni&lt;/font&gt;&lt;/u&gt;" style="ellipse;whiteSpace=wrap;html=1;" vertex="1" parent="1">
          <mxGeometry x="297.5" y="60" width="100" height="60" as="geometry" />
        </mxCell>
        <mxCell id="WbHJc0x74v06CvwMN0MW-4" value="&lt;font style=&quot;font-size: 15px;&quot;&gt;Camionero&lt;/font&gt;" style="rounded=0;whiteSpace=wrap;html=1;" vertex="1" parent="1">
          <mxGeometry x="280" y="210" width="135" height="40" as="geometry" />
        </mxCell>
        <mxCell id="WbHJc0x74v06CvwMN0MW-5" value="" style="endArrow=none;html=1;rounded=0;exitX=0.5;exitY=1;exitDx=0;exitDy=0;entryX=0.5;entryY=0;entryDx=0;entryDy=0;" edge="1" parent="1" source="WbHJc0x74v06CvwMN0MW-3" target="WbHJc0x74v06CvwMN0MW-4">
          <mxGeometry width="50" height="50" relative="1" as="geometry">
            <mxPoint x="280" y="270" as="sourcePoint" />
            <mxPoint x="330" y="220" as="targetPoint" />
          </mxGeometry>
        </mxCell>
        <mxCell id="WbHJc0x74v06CvwMN0MW-6" value="" style="endArrow=none;html=1;rounded=0;entryX=0.5;entryY=1;entryDx=0;entryDy=0;exitX=0.386;exitY=0.02;exitDx=0;exitDy=0;exitPerimeter=0;" edge="1" parent="1" source="WbHJc0x74v06CvwMN0MW-4" target="WbHJc0x74v06CvwMN0MW-2">
          <mxGeometry width="50" height="50" relative="1" as="geometry">
            <mxPoint x="210" y="170" as="sourcePoint" />
            <mxPoint x="260" y="120" as="targetPoint" />
          </mxGeometry>
        </mxCell>
        <mxCell id="WbHJc0x74v06CvwMN0MW-8" value="" style="endArrow=none;html=1;rounded=0;entryX=0.25;entryY=0;entryDx=0;entryDy=0;exitX=1;exitY=1;exitDx=0;exitDy=0;" edge="1" parent="1" source="WbHJc0x74v06CvwMN0MW-1" target="WbHJc0x74v06CvwMN0MW-4">
          <mxGeometry width="50" height="50" relative="1" as="geometry">
            <mxPoint x="280" y="270" as="sourcePoint" />
            <mxPoint x="330" y="220" as="targetPoint" />
          </mxGeometry>
        </mxCell>
        <mxCell id="WbHJc0x74v06CvwMN0MW-9" value="&lt;font style=&quot;font-size: 15px;&quot;&gt;tfno&lt;/font&gt;" style="ellipse;whiteSpace=wrap;html=1;" vertex="1" parent="1">
          <mxGeometry x="90" y="140" width="80" height="50" as="geometry" />
        </mxCell>
        <mxCell id="WbHJc0x74v06CvwMN0MW-10" value="" style="endArrow=none;html=1;rounded=0;entryX=0;entryY=0;entryDx=0;entryDy=0;exitX=1;exitY=0.5;exitDx=0;exitDy=0;" edge="1" parent="1" source="WbHJc0x74v06CvwMN0MW-9" target="WbHJc0x74v06CvwMN0MW-4">
          <mxGeometry width="50" height="50" relative="1" as="geometry">
            <mxPoint x="280" y="270" as="sourcePoint" />
            <mxPoint x="330" y="220" as="targetPoint" />
          </mxGeometry>
        </mxCell>
        <mxCell id="WbHJc0x74v06CvwMN0MW-11" value="&lt;font style=&quot;font-size: 15px;&quot;&gt;direccion&lt;/font&gt;" style="ellipse;whiteSpace=wrap;html=1;" vertex="1" parent="1">
          <mxGeometry x="90" y="210" width="100" height="60" as="geometry" />
        </mxCell>
        <mxCell id="WbHJc0x74v06CvwMN0MW-12" value="" style="endArrow=none;html=1;rounded=0;exitX=1.002;exitY=0.372;exitDx=0;exitDy=0;exitPerimeter=0;" edge="1" parent="1" source="WbHJc0x74v06CvwMN0MW-11">
          <mxGeometry width="50" height="50" relative="1" as="geometry">
            <mxPoint x="280" y="270" as="sourcePoint" />
            <mxPoint x="280" y="232" as="targetPoint" />
          </mxGeometry>
        </mxCell>
        <mxCell id="WbHJc0x74v06CvwMN0MW-13" value="&lt;font style=&quot;font-size: 15px;&quot;&gt;salario&lt;/font&gt;" style="ellipse;whiteSpace=wrap;html=1;" vertex="1" parent="1">
          <mxGeometry x="110" y="290" width="100" height="50" as="geometry" />
        </mxCell>
        <mxCell id="WbHJc0x74v06CvwMN0MW-14" value="" style="endArrow=none;html=1;rounded=0;entryX=0;entryY=1;entryDx=0;entryDy=0;" edge="1" parent="1" source="WbHJc0x74v06CvwMN0MW-13" target="WbHJc0x74v06CvwMN0MW-4">
          <mxGeometry width="50" height="50" relative="1" as="geometry">
            <mxPoint x="280" y="270" as="sourcePoint" />
            <mxPoint x="330" y="220" as="targetPoint" />
          </mxGeometry>
        </mxCell>
        <mxCell id="WbHJc0x74v06CvwMN0MW-15" value="" style="endArrow=none;html=1;rounded=0;entryX=1;entryY=0.5;entryDx=0;entryDy=0;exitX=0;exitY=0.5;exitDx=0;exitDy=0;" edge="1" parent="1" source="WbHJc0x74v06CvwMN0MW-16" target="WbHJc0x74v06CvwMN0MW-4">
          <mxGeometry width="50" height="50" relative="1" as="geometry">
            <mxPoint x="500" y="230" as="sourcePoint" />
            <mxPoint x="490" y="220" as="targetPoint" />
          </mxGeometry>
        </mxCell>
        <mxCell id="WbHJc0x74v06CvwMN0MW-16" value="&lt;font style=&quot;font-size: 15px;&quot;&gt;Conduce&lt;/font&gt;" style="rhombus;whiteSpace=wrap;html=1;" vertex="1" parent="1">
          <mxGeometry x="500" y="190" width="110" height="80" as="geometry" />
        </mxCell>
        <mxCell id="WbHJc0x74v06CvwMN0MW-17" value="" style="endArrow=none;html=1;rounded=0;exitX=0;exitY=0.5;exitDx=0;exitDy=0;entryX=1;entryY=0.5;entryDx=0;entryDy=0;" edge="1" parent="1" source="WbHJc0x74v06CvwMN0MW-18" target="WbHJc0x74v06CvwMN0MW-16">
          <mxGeometry width="50" height="50" relative="1" as="geometry">
            <mxPoint x="695" y="229.44" as="sourcePoint" />
            <mxPoint x="620" y="230" as="targetPoint" />
          </mxGeometry>
        </mxCell>
        <mxCell id="WbHJc0x74v06CvwMN0MW-18" value="&lt;font style=&quot;font-size: 15px;&quot;&gt;Camion&lt;/font&gt;" style="rounded=0;whiteSpace=wrap;html=1;" vertex="1" parent="1">
          <mxGeometry x="700" y="210" width="135" height="40" as="geometry" />
        </mxCell>
        <mxCell id="WbHJc0x74v06CvwMN0MW-19" value="&lt;font style=&quot;font-size: 15px;&quot;&gt;potencia&lt;/font&gt;" style="ellipse;whiteSpace=wrap;html=1;" vertex="1" parent="1">
          <mxGeometry x="590" y="60" width="90" height="60" as="geometry" />
        </mxCell>
        <mxCell id="WbHJc0x74v06CvwMN0MW-20" value="&lt;u&gt;&lt;font style=&quot;font-size: 15px;&quot;&gt;matricula&lt;/font&gt;&lt;/u&gt;" style="ellipse;whiteSpace=wrap;html=1;" vertex="1" parent="1">
          <mxGeometry x="715" y="60" width="105" height="60" as="geometry" />
        </mxCell>
        <mxCell id="WbHJc0x74v06CvwMN0MW-21" value="&lt;font style=&quot;font-size: 15px;&quot;&gt;modelo&lt;/font&gt;" style="ellipse;whiteSpace=wrap;html=1;" vertex="1" parent="1">
          <mxGeometry x="860" y="60" width="100" height="60" as="geometry" />
        </mxCell>
        <mxCell id="WbHJc0x74v06CvwMN0MW-22" value="" style="endArrow=none;html=1;rounded=0;entryX=0.5;entryY=1;entryDx=0;entryDy=0;exitX=0.5;exitY=0;exitDx=0;exitDy=0;" edge="1" parent="1" source="WbHJc0x74v06CvwMN0MW-18" target="WbHJc0x74v06CvwMN0MW-20">
          <mxGeometry width="50" height="50" relative="1" as="geometry">
            <mxPoint x="560" y="210" as="sourcePoint" />
            <mxPoint x="610" y="160" as="targetPoint" />
          </mxGeometry>
        </mxCell>
        <mxCell id="WbHJc0x74v06CvwMN0MW-23" value="" style="endArrow=none;html=1;rounded=0;entryX=0.5;entryY=1;entryDx=0;entryDy=0;exitX=0.25;exitY=0;exitDx=0;exitDy=0;" edge="1" parent="1" source="WbHJc0x74v06CvwMN0MW-18" target="WbHJc0x74v06CvwMN0MW-19">
          <mxGeometry width="50" height="50" relative="1" as="geometry">
            <mxPoint x="560" y="210" as="sourcePoint" />
            <mxPoint x="610" y="160" as="targetPoint" />
          </mxGeometry>
        </mxCell>
        <mxCell id="WbHJc0x74v06CvwMN0MW-24" value="" style="endArrow=none;html=1;rounded=0;entryX=0.5;entryY=1;entryDx=0;entryDy=0;exitX=0.75;exitY=0;exitDx=0;exitDy=0;" edge="1" parent="1" source="WbHJc0x74v06CvwMN0MW-18" target="WbHJc0x74v06CvwMN0MW-21">
          <mxGeometry width="50" height="50" relative="1" as="geometry">
            <mxPoint x="560" y="210" as="sourcePoint" />
            <mxPoint x="610" y="160" as="targetPoint" />
          </mxGeometry>
        </mxCell>
        <mxCell id="WbHJc0x74v06CvwMN0MW-25" value="&lt;font style=&quot;font-size: 15px;&quot;&gt;tipo&lt;/font&gt;" style="ellipse;whiteSpace=wrap;html=1;" vertex="1" parent="1">
          <mxGeometry x="900" y="200" width="80" height="60" as="geometry" />
        </mxCell>
        <mxCell id="WbHJc0x74v06CvwMN0MW-26" value="" style="endArrow=none;html=1;rounded=0;entryX=0;entryY=0.5;entryDx=0;entryDy=0;exitX=1;exitY=0.5;exitDx=0;exitDy=0;" edge="1" parent="1" source="WbHJc0x74v06CvwMN0MW-18" target="WbHJc0x74v06CvwMN0MW-25">
          <mxGeometry width="50" height="50" relative="1" as="geometry">
            <mxPoint x="560" y="210" as="sourcePoint" />
            <mxPoint x="610" y="160" as="targetPoint" />
          </mxGeometry>
        </mxCell>
        <mxCell id="WbHJc0x74v06CvwMN0MW-27" value="&lt;font style=&quot;font-size: 15px;&quot;&gt;Distribuye&lt;/font&gt;" style="rhombus;whiteSpace=wrap;html=1;" vertex="1" parent="1">
          <mxGeometry x="292.5" y="350" width="110" height="80" as="geometry" />
        </mxCell>
        <mxCell id="WbHJc0x74v06CvwMN0MW-28" value="" style="endArrow=none;html=1;rounded=0;exitX=0.5;exitY=0;exitDx=0;exitDy=0;" edge="1" parent="1" source="WbHJc0x74v06CvwMN0MW-27" target="WbHJc0x74v06CvwMN0MW-4">
          <mxGeometry width="50" height="50" relative="1" as="geometry">
            <mxPoint x="560" y="440" as="sourcePoint" />
            <mxPoint x="610" y="390" as="targetPoint" />
          </mxGeometry>
        </mxCell>
        <mxCell id="WbHJc0x74v06CvwMN0MW-29" value="" style="endArrow=none;html=1;rounded=0;exitX=0.5;exitY=0;exitDx=0;exitDy=0;" edge="1" parent="1">
          <mxGeometry width="50" height="50" relative="1" as="geometry">
            <mxPoint x="346.94" y="530" as="sourcePoint" />
            <mxPoint x="346.94" y="430" as="targetPoint" />
          </mxGeometry>
        </mxCell>
        <mxCell id="WbHJc0x74v06CvwMN0MW-32" style="edgeStyle=orthogonalEdgeStyle;rounded=0;orthogonalLoop=1;jettySize=auto;html=1;exitX=0;exitY=0.5;exitDx=0;exitDy=0;entryX=1;entryY=0.5;entryDx=0;entryDy=0;endArrow=none;endFill=0;" edge="1" parent="1" source="WbHJc0x74v06CvwMN0MW-30" target="WbHJc0x74v06CvwMN0MW-31">
          <mxGeometry relative="1" as="geometry" />
        </mxCell>
        <mxCell id="WbHJc0x74v06CvwMN0MW-35" style="edgeStyle=orthogonalEdgeStyle;rounded=0;orthogonalLoop=1;jettySize=auto;html=1;exitX=0;exitY=0.75;exitDx=0;exitDy=0;entryX=1;entryY=0.5;entryDx=0;entryDy=0;endArrow=none;endFill=0;" edge="1" parent="1" source="WbHJc0x74v06CvwMN0MW-30" target="WbHJc0x74v06CvwMN0MW-34">
          <mxGeometry relative="1" as="geometry" />
        </mxCell>
        <mxCell id="WbHJc0x74v06CvwMN0MW-37" style="edgeStyle=orthogonalEdgeStyle;rounded=0;orthogonalLoop=1;jettySize=auto;html=1;exitX=0.5;exitY=1;exitDx=0;exitDy=0;entryX=1;entryY=0.5;entryDx=0;entryDy=0;strokeColor=default;align=center;verticalAlign=middle;fontFamily=Helvetica;fontSize=11;fontColor=default;labelBackgroundColor=default;endArrow=none;endFill=0;" edge="1" parent="1" source="WbHJc0x74v06CvwMN0MW-30" target="WbHJc0x74v06CvwMN0MW-36">
          <mxGeometry relative="1" as="geometry" />
        </mxCell>
        <mxCell id="WbHJc0x74v06CvwMN0MW-39" style="edgeStyle=orthogonalEdgeStyle;rounded=0;orthogonalLoop=1;jettySize=auto;html=1;exitX=0.5;exitY=1;exitDx=0;exitDy=0;entryX=1;entryY=0.5;entryDx=0;entryDy=0;strokeColor=default;align=center;verticalAlign=middle;fontFamily=Helvetica;fontSize=11;fontColor=default;labelBackgroundColor=default;endArrow=none;endFill=0;" edge="1" parent="1" source="WbHJc0x74v06CvwMN0MW-30" target="WbHJc0x74v06CvwMN0MW-38">
          <mxGeometry relative="1" as="geometry" />
        </mxCell>
        <mxCell id="WbHJc0x74v06CvwMN0MW-41" style="edgeStyle=orthogonalEdgeStyle;rounded=0;orthogonalLoop=1;jettySize=auto;html=1;exitX=1;exitY=0.5;exitDx=0;exitDy=0;entryX=0;entryY=0.5;entryDx=0;entryDy=0;strokeColor=default;align=center;verticalAlign=middle;fontFamily=Helvetica;fontSize=11;fontColor=default;labelBackgroundColor=default;endArrow=none;endFill=0;" edge="1" parent="1" source="WbHJc0x74v06CvwMN0MW-30" target="WbHJc0x74v06CvwMN0MW-40">
          <mxGeometry relative="1" as="geometry" />
        </mxCell>
        <mxCell id="WbHJc0x74v06CvwMN0MW-30" value="&lt;font style=&quot;font-size: 15px;&quot;&gt;paquete&lt;/font&gt;" style="rounded=0;whiteSpace=wrap;html=1;" vertex="1" parent="1">
          <mxGeometry x="280" y="530" width="135" height="40" as="geometry" />
        </mxCell>
        <mxCell id="WbHJc0x74v06CvwMN0MW-31" value="&lt;font style=&quot;font-size: 15px;&quot;&gt;&lt;u&gt;codigo&lt;/u&gt;&lt;/font&gt;" style="ellipse;whiteSpace=wrap;html=1;" vertex="1" parent="1">
          <mxGeometry x="90" y="450" width="90" height="60" as="geometry" />
        </mxCell>
        <mxCell id="WbHJc0x74v06CvwMN0MW-34" value="&lt;font style=&quot;font-size: 15px;&quot;&gt;descripcion&lt;/font&gt;" style="ellipse;whiteSpace=wrap;html=1;" vertex="1" parent="1">
          <mxGeometry x="75" y="530" width="110" height="60" as="geometry" />
        </mxCell>
        <mxCell id="WbHJc0x74v06CvwMN0MW-36" value="&lt;font style=&quot;font-size: 15px;&quot;&gt;destinatario&lt;/font&gt;" style="ellipse;whiteSpace=wrap;html=1;fontFamily=Helvetica;fontSize=11;fontColor=default;labelBackgroundColor=default;" vertex="1" parent="1">
          <mxGeometry x="75" y="610" width="110" height="60" as="geometry" />
        </mxCell>
        <mxCell id="WbHJc0x74v06CvwMN0MW-38" value="&lt;font style=&quot;font-size: 15px;&quot;&gt;direccion&lt;/font&gt;" style="ellipse;whiteSpace=wrap;html=1;" vertex="1" parent="1">
          <mxGeometry x="100" y="690" width="100" height="60" as="geometry" />
        </mxCell>
        <mxCell id="WbHJc0x74v06CvwMN0MW-43" style="edgeStyle=orthogonalEdgeStyle;rounded=0;orthogonalLoop=1;jettySize=auto;html=1;exitX=1;exitY=0.5;exitDx=0;exitDy=0;entryX=0;entryY=0.5;entryDx=0;entryDy=0;strokeColor=default;align=center;verticalAlign=middle;fontFamily=Helvetica;fontSize=11;fontColor=default;labelBackgroundColor=default;endArrow=none;endFill=0;" edge="1" parent="1" source="WbHJc0x74v06CvwMN0MW-40" target="WbHJc0x74v06CvwMN0MW-42">
          <mxGeometry relative="1" as="geometry" />
        </mxCell>
        <mxCell id="WbHJc0x74v06CvwMN0MW-40" value="&lt;font style=&quot;font-size: 15px;&quot;&gt;Conduce&lt;/font&gt;" style="rhombus;whiteSpace=wrap;html=1;" vertex="1" parent="1">
          <mxGeometry x="500" y="510" width="110" height="80" as="geometry" />
        </mxCell>
        <mxCell id="WbHJc0x74v06CvwMN0MW-46" style="edgeStyle=orthogonalEdgeStyle;rounded=0;orthogonalLoop=1;jettySize=auto;html=1;exitX=1;exitY=0.5;exitDx=0;exitDy=0;entryX=0.5;entryY=1;entryDx=0;entryDy=0;strokeColor=default;align=center;verticalAlign=middle;fontFamily=Helvetica;fontSize=11;fontColor=default;labelBackgroundColor=default;endArrow=none;endFill=0;" edge="1" parent="1" source="WbHJc0x74v06CvwMN0MW-42" target="WbHJc0x74v06CvwMN0MW-44">
          <mxGeometry relative="1" as="geometry" />
        </mxCell>
        <mxCell id="WbHJc0x74v06CvwMN0MW-47" style="edgeStyle=orthogonalEdgeStyle;rounded=0;orthogonalLoop=1;jettySize=auto;html=1;exitX=1;exitY=0.5;exitDx=0;exitDy=0;entryX=0.5;entryY=0;entryDx=0;entryDy=0;strokeColor=default;align=center;verticalAlign=middle;fontFamily=Helvetica;fontSize=11;fontColor=default;labelBackgroundColor=default;endArrow=none;endFill=0;" edge="1" parent="1" source="WbHJc0x74v06CvwMN0MW-42" target="WbHJc0x74v06CvwMN0MW-45">
          <mxGeometry relative="1" as="geometry" />
        </mxCell>
        <mxCell id="WbHJc0x74v06CvwMN0MW-42" value="&lt;font style=&quot;font-size: 15px;&quot;&gt;provincia&lt;/font&gt;" style="rounded=0;whiteSpace=wrap;html=1;" vertex="1" parent="1">
          <mxGeometry x="700" y="530" width="135" height="40" as="geometry" />
        </mxCell>
        <mxCell id="WbHJc0x74v06CvwMN0MW-44" value="&lt;font style=&quot;font-size: 15px;&quot;&gt;&lt;u&gt;codigo&lt;/u&gt;&lt;/font&gt;" style="ellipse;whiteSpace=wrap;html=1;" vertex="1" parent="1">
          <mxGeometry x="895" y="410" width="90" height="60" as="geometry" />
        </mxCell>
        <mxCell id="WbHJc0x74v06CvwMN0MW-45" value="&lt;font style=&quot;font-size: 15px;&quot;&gt;nombre&lt;/font&gt;" style="ellipse;whiteSpace=wrap;html=1;" vertex="1" parent="1">
          <mxGeometry x="895" y="620" width="90" height="60" as="geometry" />
        </mxCell>
        <mxCell id="WbHJc0x74v06CvwMN0MW-48" value="(0,M)" style="text;html=1;align=center;verticalAlign=middle;whiteSpace=wrap;rounded=0;fontFamily=Helvetica;fontSize=11;fontColor=default;labelBackgroundColor=default;" vertex="1" parent="1">
          <mxGeometry x="430" y="200" width="60" height="30" as="geometry" />
        </mxCell>
        <mxCell id="WbHJc0x74v06CvwMN0MW-49" value="(0,M)" style="text;html=1;align=center;verticalAlign=middle;whiteSpace=wrap;rounded=0;fontFamily=Helvetica;fontSize=11;fontColor=default;labelBackgroundColor=default;" vertex="1" parent="1">
          <mxGeometry x="430" y="520" width="60" height="30" as="geometry" />
        </mxCell>
        <mxCell id="WbHJc0x74v06CvwMN0MW-53" value="(0,M)" style="text;html=1;align=center;verticalAlign=middle;whiteSpace=wrap;rounded=0;fontFamily=Helvetica;fontSize=11;fontColor=default;labelBackgroundColor=default;" vertex="1" parent="1">
          <mxGeometry x="620" y="200" width="60" height="30" as="geometry" />
        </mxCell>
        <mxCell id="WbHJc0x74v06CvwMN0MW-54" value="(1,1)" style="text;html=1;align=center;verticalAlign=middle;whiteSpace=wrap;rounded=0;fontFamily=Helvetica;fontSize=11;fontColor=default;labelBackgroundColor=default;" vertex="1" parent="1">
          <mxGeometry x="620" y="520" width="60" height="30" as="geometry" />
        </mxCell>
        <mxCell id="WbHJc0x74v06CvwMN0MW-55" value="(0,1)" style="text;html=1;align=center;verticalAlign=middle;whiteSpace=wrap;rounded=0;fontFamily=Helvetica;fontSize=11;fontColor=default;labelBackgroundColor=default;" vertex="1" parent="1">
          <mxGeometry x="355" y="290" width="60" height="30" as="geometry" />
        </mxCell>
        <mxCell id="WbHJc0x74v06CvwMN0MW-56" value="(1,M)" style="text;html=1;align=center;verticalAlign=middle;whiteSpace=wrap;rounded=0;fontFamily=Helvetica;fontSize=11;fontColor=default;labelBackgroundColor=default;" vertex="1" parent="1">
          <mxGeometry x="355" y="460" width="60" height="30" as="geometry" />
        </mxCell>
        <mxCell id="WbHJc0x74v06CvwMN0MW-57" value="(1,N)" style="text;html=1;align=center;verticalAlign=middle;whiteSpace=wrap;rounded=0;fontFamily=Helvetica;fontSize=11;fontColor=default;labelBackgroundColor=default;" vertex="1" parent="1">
          <mxGeometry x="410" y="375" width="60" height="30" as="geometry" />
        </mxCell>
        <mxCell id="WbHJc0x74v06CvwMN0MW-58" value="(1,M)" style="text;html=1;align=center;verticalAlign=middle;whiteSpace=wrap;rounded=0;fontFamily=Helvetica;fontSize=11;fontColor=default;labelBackgroundColor=default;" vertex="1" parent="1">
          <mxGeometry x="525" y="470" width="60" height="30" as="geometry" />
        </mxCell>
        <mxCell id="WbHJc0x74v06CvwMN0MW-59" value="N:M" style="text;html=1;align=center;verticalAlign=middle;whiteSpace=wrap;rounded=0;fontFamily=Helvetica;fontSize=11;fontColor=default;labelBackgroundColor=default;" vertex="1" parent="1">
          <mxGeometry x="525" y="150" width="60" height="30" as="geometry" />
        </mxCell>
      </root>
    </mxGraphModel>
  </diagram>
  <diagram id="-B7qhO6yc8n2Gvb5EMVX" name="PÃ¡gina-2">
    <mxGraphModel dx="993" dy="568" grid="1" gridSize="10" guides="1" tooltips="1" connect="1" arrows="1" fold="1" page="1" pageScale="1" pageWidth="1920" pageHeight="1200" math="0" shadow="0">
      <root>
        <mxCell id="0" />
        <mxCell id="1" parent="0" />
        <mxCell id="ll_5W8jiElfBMTMBmkTI-21" value="" style="edgeStyle=none;rounded=0;orthogonalLoop=1;jettySize=auto;html=1;strokeColor=default;align=center;verticalAlign=middle;fontFamily=Helvetica;fontSize=11;fontColor=default;labelBackgroundColor=default;endArrow=none;endFill=0;entryX=0;entryY=0.5;entryDx=0;entryDy=0;" edge="1" parent="1" source="yZ0iv_QkneaxjMIN7TOF-1" target="ll_5W8jiElfBMTMBmkTI-22">
          <mxGeometry relative="1" as="geometry">
            <mxPoint x="485" y="180" as="targetPoint" />
          </mxGeometry>
        </mxCell>
        <mxCell id="yZ0iv_QkneaxjMIN7TOF-1" value="&lt;font style=&quot;font-size: 14px;&quot;&gt;Plantas&lt;/font&gt;" style="rounded=0;whiteSpace=wrap;html=1;fontFamily=Helvetica;fontSize=11;fontColor=default;labelBackgroundColor=default;" vertex="1" parent="1">
          <mxGeometry x="265" y="160" width="120" height="40" as="geometry" />
        </mxCell>
        <mxCell id="ll_5W8jiElfBMTMBmkTI-14" style="edgeStyle=none;rounded=0;orthogonalLoop=1;jettySize=auto;html=1;exitX=0.5;exitY=1;exitDx=0;exitDy=0;entryX=0.5;entryY=0;entryDx=0;entryDy=0;strokeColor=default;align=center;verticalAlign=middle;fontFamily=Helvetica;fontSize=11;fontColor=default;labelBackgroundColor=default;endArrow=none;endFill=0;" edge="1" parent="1" source="yZ0iv_QkneaxjMIN7TOF-2" target="yZ0iv_QkneaxjMIN7TOF-1">
          <mxGeometry relative="1" as="geometry" />
        </mxCell>
        <mxCell id="yZ0iv_QkneaxjMIN7TOF-2" value="&lt;font style=&quot;font-size: 15px;&quot;&gt;&lt;u&gt;color&lt;/u&gt;&lt;/font&gt;" style="ellipse;whiteSpace=wrap;html=1;fontFamily=Helvetica;fontSize=11;fontColor=default;labelBackgroundColor=default;" vertex="1" parent="1">
          <mxGeometry x="365" y="50" width="100" height="50" as="geometry" />
        </mxCell>
        <mxCell id="ll_5W8jiElfBMTMBmkTI-13" style="edgeStyle=none;rounded=0;orthogonalLoop=1;jettySize=auto;html=1;exitX=0.5;exitY=1;exitDx=0;exitDy=0;entryX=0.25;entryY=0;entryDx=0;entryDy=0;strokeColor=default;align=center;verticalAlign=middle;fontFamily=Helvetica;fontSize=11;fontColor=default;labelBackgroundColor=default;endArrow=none;endFill=0;" edge="1" parent="1" source="ll_5W8jiElfBMTMBmkTI-2" target="yZ0iv_QkneaxjMIN7TOF-1">
          <mxGeometry relative="1" as="geometry" />
        </mxCell>
        <mxCell id="ll_5W8jiElfBMTMBmkTI-2" value="&lt;font style=&quot;font-size: 14px;&quot;&gt;superficie&lt;/font&gt;" style="ellipse;whiteSpace=wrap;html=1;fontFamily=Helvetica;fontSize=11;fontColor=default;labelBackgroundColor=default;" vertex="1" parent="1">
          <mxGeometry x="245" y="50" width="100" height="50" as="geometry" />
        </mxCell>
        <mxCell id="ll_5W8jiElfBMTMBmkTI-11" style="rounded=0;orthogonalLoop=1;jettySize=auto;html=1;exitX=1;exitY=1;exitDx=0;exitDy=0;entryX=0;entryY=0;entryDx=0;entryDy=0;strokeColor=default;align=center;verticalAlign=middle;fontFamily=Helvetica;fontSize=11;fontColor=default;labelBackgroundColor=default;endArrow=none;endFill=0;" edge="1" parent="1" source="ll_5W8jiElfBMTMBmkTI-3" target="yZ0iv_QkneaxjMIN7TOF-1">
          <mxGeometry relative="1" as="geometry" />
        </mxCell>
        <mxCell id="ll_5W8jiElfBMTMBmkTI-3" value="&lt;font style=&quot;font-size: 14px;&quot;&gt;superficie&lt;/font&gt;" style="ellipse;whiteSpace=wrap;html=1;fontFamily=Helvetica;fontSize=11;fontColor=default;labelBackgroundColor=default;" vertex="1" parent="1">
          <mxGeometry x="115" y="40" width="100" height="50" as="geometry" />
        </mxCell>
        <mxCell id="ll_5W8jiElfBMTMBmkTI-15" style="edgeStyle=none;rounded=0;orthogonalLoop=1;jettySize=auto;html=1;exitX=1;exitY=1;exitDx=0;exitDy=0;strokeColor=default;align=center;verticalAlign=middle;fontFamily=Helvetica;fontSize=11;fontColor=default;labelBackgroundColor=default;endArrow=none;endFill=0;" edge="1" parent="1" source="ll_5W8jiElfBMTMBmkTI-4" target="yZ0iv_QkneaxjMIN7TOF-1">
          <mxGeometry relative="1" as="geometry" />
        </mxCell>
        <mxCell id="ll_5W8jiElfBMTMBmkTI-4" value="&lt;font style=&quot;font-size: 14px;&quot;&gt;superficie&lt;/font&gt;" style="ellipse;whiteSpace=wrap;html=1;fontFamily=Helvetica;fontSize=11;fontColor=default;labelBackgroundColor=default;" vertex="1" parent="1">
          <mxGeometry x="85" y="120" width="100" height="50" as="geometry" />
        </mxCell>
        <mxCell id="ll_5W8jiElfBMTMBmkTI-16" style="edgeStyle=none;rounded=0;orthogonalLoop=1;jettySize=auto;html=1;exitX=1;exitY=0;exitDx=0;exitDy=0;entryX=0;entryY=0.75;entryDx=0;entryDy=0;strokeColor=default;align=center;verticalAlign=middle;fontFamily=Helvetica;fontSize=11;fontColor=default;labelBackgroundColor=default;endArrow=none;endFill=0;" edge="1" parent="1" source="ll_5W8jiElfBMTMBmkTI-5" target="yZ0iv_QkneaxjMIN7TOF-1">
          <mxGeometry relative="1" as="geometry" />
        </mxCell>
        <mxCell id="ll_5W8jiElfBMTMBmkTI-5" value="&lt;font style=&quot;font-size: 14px;&quot;&gt;superficie&lt;/font&gt;" style="ellipse;whiteSpace=wrap;html=1;fontFamily=Helvetica;fontSize=11;fontColor=default;labelBackgroundColor=default;" vertex="1" parent="1">
          <mxGeometry x="85" y="200" width="100" height="50" as="geometry" />
        </mxCell>
        <mxCell id="ll_5W8jiElfBMTMBmkTI-24" value="" style="edgeStyle=none;rounded=0;orthogonalLoop=1;jettySize=auto;html=1;strokeColor=default;align=center;verticalAlign=middle;fontFamily=Helvetica;fontSize=11;fontColor=default;labelBackgroundColor=default;endArrow=none;endFill=0;" edge="1" parent="1" source="ll_5W8jiElfBMTMBmkTI-22" target="ll_5W8jiElfBMTMBmkTI-23">
          <mxGeometry relative="1" as="geometry" />
        </mxCell>
        <mxCell id="ll_5W8jiElfBMTMBmkTI-22" value="&lt;font style=&quot;font-size: 14px;&quot;&gt;Encuentran&lt;/font&gt;" style="rhombus;whiteSpace=wrap;html=1;fontFamily=Helvetica;fontSize=11;fontColor=default;labelBackgroundColor=default;" vertex="1" parent="1">
          <mxGeometry x="485" y="140" width="130" height="80" as="geometry" />
        </mxCell>
        <mxCell id="ll_5W8jiElfBMTMBmkTI-23" value="&lt;font style=&quot;font-size: 14px;&quot;&gt;Maquinas&lt;/font&gt;" style="whiteSpace=wrap;html=1;fontSize=11;labelBackgroundColor=default;" vertex="1" parent="1">
          <mxGeometry x="705" y="160" width="120" height="40" as="geometry" />
        </mxCell>
        <mxCell id="ll_5W8jiElfBMTMBmkTI-31" style="edgeStyle=none;rounded=0;orthogonalLoop=1;jettySize=auto;html=1;exitX=0.5;exitY=1;exitDx=0;exitDy=0;strokeColor=default;align=center;verticalAlign=middle;fontFamily=Helvetica;fontSize=11;fontColor=default;labelBackgroundColor=default;endArrow=none;endFill=0;" edge="1" parent="1" source="ll_5W8jiElfBMTMBmkTI-26" target="ll_5W8jiElfBMTMBmkTI-23">
          <mxGeometry relative="1" as="geometry" />
        </mxCell>
        <mxCell id="ll_5W8jiElfBMTMBmkTI-26" value="&lt;font style=&quot;font-size: 15px;&quot;&gt;Marca&lt;/font&gt;" style="ellipse;whiteSpace=wrap;html=1;fontFamily=Helvetica;fontSize=11;fontColor=default;labelBackgroundColor=default;" vertex="1" parent="1">
          <mxGeometry x="715" y="50" width="100" height="50" as="geometry" />
        </mxCell>
        <mxCell id="ll_5W8jiElfBMTMBmkTI-29" style="edgeStyle=none;rounded=0;orthogonalLoop=1;jettySize=auto;html=1;exitX=0;exitY=1;exitDx=0;exitDy=0;entryX=1;entryY=0;entryDx=0;entryDy=0;strokeColor=default;align=center;verticalAlign=middle;fontFamily=Helvetica;fontSize=11;fontColor=default;labelBackgroundColor=default;endArrow=none;endFill=0;" edge="1" parent="1" source="ll_5W8jiElfBMTMBmkTI-27" target="ll_5W8jiElfBMTMBmkTI-23">
          <mxGeometry relative="1" as="geometry" />
        </mxCell>
        <mxCell id="ll_5W8jiElfBMTMBmkTI-27" value="&lt;font style=&quot;font-size: 15px;&quot;&gt;modelo&lt;/font&gt;" style="ellipse;whiteSpace=wrap;html=1;fontFamily=Helvetica;fontSize=11;fontColor=default;labelBackgroundColor=default;" vertex="1" parent="1">
          <mxGeometry x="865" y="60" width="100" height="50" as="geometry" />
        </mxCell>
        <mxCell id="ll_5W8jiElfBMTMBmkTI-30" style="edgeStyle=none;rounded=0;orthogonalLoop=1;jettySize=auto;html=1;exitX=0;exitY=0.5;exitDx=0;exitDy=0;entryX=1;entryY=0.5;entryDx=0;entryDy=0;strokeColor=default;align=center;verticalAlign=middle;fontFamily=Helvetica;fontSize=11;fontColor=default;labelBackgroundColor=default;endArrow=none;endFill=0;" edge="1" parent="1" source="ll_5W8jiElfBMTMBmkTI-28" target="ll_5W8jiElfBMTMBmkTI-23">
          <mxGeometry relative="1" as="geometry" />
        </mxCell>
        <mxCell id="ll_5W8jiElfBMTMBmkTI-28" value="&lt;span style=&quot;font-size: 15px;&quot;&gt;&lt;u&gt;numero&lt;/u&gt;&lt;/span&gt;" style="ellipse;whiteSpace=wrap;html=1;fontFamily=Helvetica;fontSize=11;fontColor=default;labelBackgroundColor=default;" vertex="1" parent="1">
          <mxGeometry x="895" y="155" width="100" height="50" as="geometry" />
        </mxCell>
        <mxCell id="ll_5W8jiElfBMTMBmkTI-35" style="edgeStyle=none;rounded=0;orthogonalLoop=1;jettySize=auto;html=1;exitX=0.5;exitY=0;exitDx=0;exitDy=0;entryX=0.5;entryY=1;entryDx=0;entryDy=0;strokeColor=default;align=center;verticalAlign=middle;fontFamily=Helvetica;fontSize=11;fontColor=default;labelBackgroundColor=default;endArrow=none;endFill=0;" edge="1" parent="1" source="ll_5W8jiElfBMTMBmkTI-34" target="ll_5W8jiElfBMTMBmkTI-23">
          <mxGeometry relative="1" as="geometry" />
        </mxCell>
        <mxCell id="ll_5W8jiElfBMTMBmkTI-37" value="" style="edgeStyle=none;rounded=0;orthogonalLoop=1;jettySize=auto;html=1;strokeColor=default;align=center;verticalAlign=middle;fontFamily=Helvetica;fontSize=11;fontColor=default;labelBackgroundColor=default;endArrow=none;endFill=0;" edge="1" parent="1" source="ll_5W8jiElfBMTMBmkTI-34" target="ll_5W8jiElfBMTMBmkTI-36">
          <mxGeometry relative="1" as="geometry" />
        </mxCell>
        <mxCell id="ll_5W8jiElfBMTMBmkTI-34" value="&lt;font style=&quot;font-size: 14px;&quot;&gt;operan&lt;/font&gt;" style="rhombus;whiteSpace=wrap;html=1;fontFamily=Helvetica;fontSize=11;fontColor=default;labelBackgroundColor=default;" vertex="1" parent="1">
          <mxGeometry x="700" y="280" width="130" height="80" as="geometry" />
        </mxCell>
        <mxCell id="ll_5W8jiElfBMTMBmkTI-53" style="edgeStyle=none;rounded=0;orthogonalLoop=1;jettySize=auto;html=1;exitX=0.5;exitY=1;exitDx=0;exitDy=0;entryX=0.5;entryY=0;entryDx=0;entryDy=0;strokeColor=default;align=center;verticalAlign=middle;fontFamily=Helvetica;fontSize=11;fontColor=default;labelBackgroundColor=default;endArrow=none;endFill=0;" edge="1" parent="1" source="ll_5W8jiElfBMTMBmkTI-36" target="ll_5W8jiElfBMTMBmkTI-45">
          <mxGeometry relative="1" as="geometry" />
        </mxCell>
        <mxCell id="ll_5W8jiElfBMTMBmkTI-36" value="&lt;font style=&quot;font-size: 15px;&quot;&gt;tecnicos&lt;/font&gt;" style="whiteSpace=wrap;html=1;fontSize=11;labelBackgroundColor=default;" vertex="1" parent="1">
          <mxGeometry x="705" y="440" width="120" height="40" as="geometry" />
        </mxCell>
        <mxCell id="ll_5W8jiElfBMTMBmkTI-38" style="edgeStyle=none;rounded=0;orthogonalLoop=1;jettySize=auto;html=1;exitX=0.25;exitY=0;exitDx=0;exitDy=0;entryX=0.5;entryY=0;entryDx=0;entryDy=0;strokeColor=default;align=center;verticalAlign=middle;fontFamily=Helvetica;fontSize=11;fontColor=default;labelBackgroundColor=default;endArrow=none;endFill=0;" edge="1" parent="1" source="ll_5W8jiElfBMTMBmkTI-36" target="ll_5W8jiElfBMTMBmkTI-36">
          <mxGeometry relative="1" as="geometry" />
        </mxCell>
        <mxCell id="ll_5W8jiElfBMTMBmkTI-46" style="edgeStyle=none;rounded=0;orthogonalLoop=1;jettySize=auto;html=1;exitX=1;exitY=0.5;exitDx=0;exitDy=0;entryX=0;entryY=0.5;entryDx=0;entryDy=0;strokeColor=default;align=center;verticalAlign=middle;fontFamily=Helvetica;fontSize=11;fontColor=default;labelBackgroundColor=default;endArrow=none;endFill=0;" edge="1" parent="1" source="ll_5W8jiElfBMTMBmkTI-39" target="ll_5W8jiElfBMTMBmkTI-36">
          <mxGeometry relative="1" as="geometry" />
        </mxCell>
        <mxCell id="ll_5W8jiElfBMTMBmkTI-39" value="&lt;span style=&quot;font-size: 15px;&quot;&gt;&lt;u&gt;DNI&lt;/u&gt;&lt;/span&gt;" style="ellipse;whiteSpace=wrap;html=1;fontFamily=Helvetica;fontSize=11;fontColor=default;labelBackgroundColor=default;" vertex="1" parent="1">
          <mxGeometry x="485" y="435" width="100" height="50" as="geometry" />
        </mxCell>
        <mxCell id="ll_5W8jiElfBMTMBmkTI-48" style="edgeStyle=none;rounded=0;orthogonalLoop=1;jettySize=auto;html=1;exitX=1;exitY=0;exitDx=0;exitDy=0;entryX=0;entryY=1;entryDx=0;entryDy=0;strokeColor=default;align=center;verticalAlign=middle;fontFamily=Helvetica;fontSize=11;fontColor=default;labelBackgroundColor=default;endArrow=none;endFill=0;" edge="1" parent="1" source="ll_5W8jiElfBMTMBmkTI-40" target="ll_5W8jiElfBMTMBmkTI-36">
          <mxGeometry relative="1" as="geometry" />
        </mxCell>
        <mxCell id="ll_5W8jiElfBMTMBmkTI-40" value="&lt;span style=&quot;font-size: 15px;&quot;&gt;fecha de nacimiento&lt;/span&gt;" style="ellipse;whiteSpace=wrap;html=1;fontFamily=Helvetica;fontSize=11;fontColor=default;labelBackgroundColor=default;" vertex="1" parent="1">
          <mxGeometry x="495" y="520" width="150" height="50" as="geometry" />
        </mxCell>
        <mxCell id="ll_5W8jiElfBMTMBmkTI-47" style="edgeStyle=none;rounded=0;orthogonalLoop=1;jettySize=auto;html=1;exitX=0;exitY=0.5;exitDx=0;exitDy=0;entryX=1;entryY=0.5;entryDx=0;entryDy=0;strokeColor=default;align=center;verticalAlign=middle;fontFamily=Helvetica;fontSize=11;fontColor=default;labelBackgroundColor=default;endArrow=none;endFill=0;" edge="1" parent="1" source="ll_5W8jiElfBMTMBmkTI-41" target="ll_5W8jiElfBMTMBmkTI-36">
          <mxGeometry relative="1" as="geometry" />
        </mxCell>
        <mxCell id="ll_5W8jiElfBMTMBmkTI-41" value="&lt;span style=&quot;font-size: 15px;&quot;&gt;Nombre&lt;/span&gt;" style="ellipse;whiteSpace=wrap;html=1;fontFamily=Helvetica;fontSize=11;fontColor=default;labelBackgroundColor=default;" vertex="1" parent="1">
          <mxGeometry x="965" y="435" width="100" height="50" as="geometry" />
        </mxCell>
        <mxCell id="ll_5W8jiElfBMTMBmkTI-49" style="edgeStyle=none;rounded=0;orthogonalLoop=1;jettySize=auto;html=1;exitX=0;exitY=0;exitDx=0;exitDy=0;entryX=1;entryY=1;entryDx=0;entryDy=0;strokeColor=default;align=center;verticalAlign=middle;fontFamily=Helvetica;fontSize=11;fontColor=default;labelBackgroundColor=default;endArrow=none;endFill=0;" edge="1" parent="1" source="ll_5W8jiElfBMTMBmkTI-42" target="ll_5W8jiElfBMTMBmkTI-36">
          <mxGeometry relative="1" as="geometry" />
        </mxCell>
        <mxCell id="ll_5W8jiElfBMTMBmkTI-42" value="&lt;span style=&quot;font-size: 15px;&quot;&gt;Apellido&lt;/span&gt;" style="ellipse;whiteSpace=wrap;html=1;fontFamily=Helvetica;fontSize=11;fontColor=default;labelBackgroundColor=default;" vertex="1" parent="1">
          <mxGeometry x="895" y="520" width="100" height="50" as="geometry" />
        </mxCell>
        <mxCell id="ll_5W8jiElfBMTMBmkTI-50" style="edgeStyle=none;rounded=0;orthogonalLoop=1;jettySize=auto;html=1;exitX=1;exitY=0;exitDx=0;exitDy=0;entryX=0.25;entryY=1;entryDx=0;entryDy=0;strokeColor=default;align=center;verticalAlign=middle;fontFamily=Helvetica;fontSize=11;fontColor=default;labelBackgroundColor=default;endArrow=none;endFill=0;" edge="1" parent="1" source="ll_5W8jiElfBMTMBmkTI-43" target="ll_5W8jiElfBMTMBmkTI-36">
          <mxGeometry relative="1" as="geometry" />
        </mxCell>
        <mxCell id="ll_5W8jiElfBMTMBmkTI-43" value="&lt;span style=&quot;font-size: 15px;&quot;&gt;fecha de uso&lt;/span&gt;" style="ellipse;whiteSpace=wrap;html=1;fontFamily=Helvetica;fontSize=11;fontColor=default;labelBackgroundColor=default;" vertex="1" parent="1">
          <mxGeometry x="605" y="600" width="100" height="50" as="geometry" />
        </mxCell>
        <mxCell id="ll_5W8jiElfBMTMBmkTI-51" style="edgeStyle=none;rounded=0;orthogonalLoop=1;jettySize=auto;html=1;exitX=0;exitY=0;exitDx=0;exitDy=0;entryX=0.75;entryY=1;entryDx=0;entryDy=0;strokeColor=default;align=center;verticalAlign=middle;fontFamily=Helvetica;fontSize=11;fontColor=default;labelBackgroundColor=default;endArrow=none;endFill=0;" edge="1" parent="1" source="ll_5W8jiElfBMTMBmkTI-44" target="ll_5W8jiElfBMTMBmkTI-36">
          <mxGeometry relative="1" as="geometry" />
        </mxCell>
        <mxCell id="ll_5W8jiElfBMTMBmkTI-44" value="&lt;span style=&quot;font-size: 15px;&quot;&gt;tfno&lt;/span&gt;" style="ellipse;whiteSpace=wrap;html=1;fontFamily=Helvetica;fontSize=11;fontColor=default;labelBackgroundColor=default;" vertex="1" parent="1">
          <mxGeometry x="825" y="600" width="100" height="50" as="geometry" />
        </mxCell>
        <mxCell id="ll_5W8jiElfBMTMBmkTI-45" value="&lt;span style=&quot;font-size: 15px;&quot;&gt;turno&lt;/span&gt;" style="ellipse;whiteSpace=wrap;html=1;fontFamily=Helvetica;fontSize=11;fontColor=default;labelBackgroundColor=default;" vertex="1" parent="1">
          <mxGeometry x="715" y="680" width="100" height="50" as="geometry" />
        </mxCell>
        <mxCell id="ll_5W8jiElfBMTMBmkTI-54" value="(1,1)" style="text;html=1;align=center;verticalAlign=middle;whiteSpace=wrap;rounded=0;fontFamily=Helvetica;fontSize=11;fontColor=default;labelBackgroundColor=default;" vertex="1" parent="1">
          <mxGeometry x="410" y="150" width="60" height="30" as="geometry" />
        </mxCell>
        <mxCell id="ll_5W8jiElfBMTMBmkTI-55" value="(1,M)" style="text;html=1;align=center;verticalAlign=middle;whiteSpace=wrap;rounded=0;fontFamily=Helvetica;fontSize=11;fontColor=default;labelBackgroundColor=default;" vertex="1" parent="1">
          <mxGeometry x="630" y="150" width="60" height="30" as="geometry" />
        </mxCell>
        <mxCell id="ll_5W8jiElfBMTMBmkTI-56" value="(1,M)" style="text;html=1;align=center;verticalAlign=middle;whiteSpace=wrap;rounded=0;fontFamily=Helvetica;fontSize=11;fontColor=default;labelBackgroundColor=default;" vertex="1" parent="1">
          <mxGeometry x="705" y="230" width="60" height="30" as="geometry" />
        </mxCell>
        <mxCell id="ll_5W8jiElfBMTMBmkTI-57" value="(0,1)" style="text;html=1;align=center;verticalAlign=middle;whiteSpace=wrap;rounded=0;fontFamily=Helvetica;fontSize=11;fontColor=default;labelBackgroundColor=default;" vertex="1" parent="1">
          <mxGeometry x="705" y="380" width="60" height="30" as="geometry" />
        </mxCell>
        <mxCell id="ll_5W8jiElfBMTMBmkTI-58" value="(1,M)" style="text;html=1;align=center;verticalAlign=middle;whiteSpace=wrap;rounded=0;fontFamily=Helvetica;fontSize=11;fontColor=default;labelBackgroundColor=default;" vertex="1" parent="1">
          <mxGeometry x="520" y="230" width="60" height="30" as="geometry" />
        </mxCell>
        <mxCell id="ll_5W8jiElfBMTMBmkTI-59" value="(1,M)" style="text;html=1;align=center;verticalAlign=middle;whiteSpace=wrap;rounded=0;fontFamily=Helvetica;fontSize=11;fontColor=default;labelBackgroundColor=default;" vertex="1" parent="1">
          <mxGeometry x="630" y="305" width="60" height="30" as="geometry" />
        </mxCell>
      </root>
    </mxGraphModel>
  </diagram>
</mxfile>
